PathFileType	4	(X/Y/Z)	./resultDataOpenSim/trcMotMarkerGrf/sub06/qtm-02-08.trc
DataRate	CameraRate	NumFrames	NumMarkers	Units	OrigDataRate	OrigDataStartFrame	OrigNumFrames
250.000000	250.000000	7	24	m	250.000000	184	489
Frame#	Time	L.Toe.Tip			R.Toe.Tip			L.Ankle.Lat			R.Ankle.Lat			L.Ankle.Med			R.Ankle.Med			L.Heel			R.Heel			L.Knee.Lat			R.Knee.Lat			L.Knee.Med			R.Knee.Med			L.Thigh.Upper			R.Thigh.Upper			L.ASIS			R.ASIS			V.Sacral			L.Acromium			R.Acromium			C7			L.Elbow			R.Elbow			L.Wrist.Lat			R.Wrist.Lat
		X1	Y1	Z1	X2	Y2	Z2	X3	Y3	Z3	X4	Y4	Z4	X5	Y5	Z5	X6	Y6	Z6	X7	Y7	Z7	X8	Y8	Z8	X9	Y9	Z9	X10	Y10	Z10	X11	Y11	Z11	X12	Y12	Z12	X13	Y13	Z13	X14	Y14	Z14	X15	Y15	Z15	X16	Y16	Z16	X17	Y17	Z17	X18	Y18	Z18	X19	Y19	Z19	X20	Y20	Z20	X21	Y21	Z21	X22	Y22	Z22	X23	Y23	Z23	X24	Y24	Z24

184	0.732	0.070749787	0.0098234471	0.0031117891	-0.51418619	0.082913094	0.14656865	-0.051149009	0.0401741	-0.023212307	-0.51815528	0.22086758	0.18059046	-0.053504633	0.0554224	0.0639165	-0.4790749	0.2106742	0.1001949	-0.128792	0.014605143	0.019053666	-0.54093175	0.26702215	0.11887125	0.027607613	0.40453915	-0.052240406	-0.16750029	0.36048119	0.22427749	0.001213979	0.40472116	0.066664174	-0.16792056	0.3438798	0.090110996	-0.12301229	0.77261809	-0.12725233	-0.19989129	0.72595828	0.21106675	-0.067729005	0.80870498	-0.070512442	-0.094153915	0.78539325	0.17284177	-0.26429741	0.87293077	0.04545322	-0.13927639	1.2685748	-0.14746325	-0.14021745	1.2732082	0.21634001	-0.21880199	1.3143375	0.032543782	-0.22117969	0.96470132	-0.18570556	-0.20941939	0.96194003	0.29548938	-0.12973719	0.74448048	-0.24072659	-0.020249424	0.80040558	0.31682903
185	0.736	0.070685883	0.0098014883	0.0030178619	-0.49689604	0.084141408	0.14793073	-0.051223267	0.040186964	-0.023257273	-0.50318058	0.22199013	0.18093564	-0.053513669	0.055531938	0.063846242	-0.46407279	0.21227195	0.10063733	-0.12893794	0.014692015	0.019344526	-0.52707637	0.26775245	0.11913616	0.029617519	0.40411489	-0.052425063	-0.15359543	0.36257381	0.22484028	0.0027358971	0.4048078	0.06653641	-0.15422977	0.34611253	0.090881157	-0.11754674	0.7735755	-0.12750218	-0.19310103	0.72743153	0.21037814	-0.061925974	0.80975775	-0.070900094	-0.088120396	0.78722796	0.17287216	-0.25878698	0.8746559	0.044500621	-0.13215864	1.2703486	-0.14727128	-0.13433166	1.2748576	0.21664837	-0.21208102	1.3160275	0.032481502	-0.21301265	0.96591751	-0.18620759	-0.20454014	0.96363999	0.29474854	-0.11888093	0.74644688	-0.24006138	-0.017624093	0.79999665	0.3172852
186	0.74	0.070620553	0.0097851145	0.0029464309	-0.47952997	0.085183534	0.1492751	-0.051281354	0.04022067	-0.023288496	-0.48810575	0.22293115	0.18126552	-0.053560884	0.055642091	0.063787157	-0.44887136	0.21356072	0.10094736	-0.12907551	0.014767931	0.019592921	-0.51316523	0.26817394	0.11934972	0.031479279	0.40376231	-0.052504817	-0.13976699	0.36490837	0.22532576	0.004085649	0.40494416	0.066436157	-0.14055156	0.34852222	0.091414398	-0.11225073	0.77454192	-0.12778553	-0.18621256	0.72895664	0.20959623	-0.056086308	0.81087598	-0.071316133	-0.082103757	0.78911665	0.17288606	-0.25325522	0.87643091	0.043613833	-0.12510502	1.2722035	-0.14706045	-0.12847762	1.2765695	0.21697539	-0.20531676	1.3177539	0.032386044	-0.20484852	0.96719836	-0.18668424	-0.19986547	0.96541796	0.29407156	-0.10798227	0.74853543	-0.2393444	-0.015085231	0.79970896	0.31771651
187	0.744	0.070552886	0.0097783301	0.0028822532	-0.46205836	0.086041892	0.15059363	-0.051327253	0.040266754	-0.023310963	-0.47292394	0.22367741	0.18159726	-0.053641837	0.055746504	0.063740595	-0.43344023	0.21451145	0.10115747	-0.12917887	0.014837223	0.019739142	-0.49914621	0.26831175	0.11955017	0.033206872	0.40347139	-0.052485976	-0.1260323	0.36749146	0.22572965	0.0053536646	0.40510708	0.06640118	-0.1269061	0.35109861	0.091700563	-0.10700175	0.77553344	-0.12808132	-0.17922896	0.7305294	0.20872878	-0.05024495	0.81205109	-0.071768439	-0.076086506	0.79105346	0.17287695	-0.24766188	0.87824339	0.042814745	-0.1181147	1.2741368	-0.14683381	-0.12264807	1.2783351	0.21731144	-0.19859783	1.319526	0.032327569	-0.19660861	0.96852429	-0.18703515	-0.19524094	0.96728322	0.29346087	-0.097044147	0.75073985	-0.23858128	-0.012636012	0.79954147	0.31812636
188	0.748	0.070493086	0.009783458	0.0028219375	-0.44441693	0.086726522	0.15186495	-0.051357841	0.040320234	-0.02332214	-0.45764367	0.22419647	0.18194748	-0.053736671	0.055840312	0.063709878	-0.41790451	0.2151846	0.10145785	-0.12922985	0.014907599	0.019761966	-0.48500312	0.26817974	0.11976592	0.03482164	0.4032425	-0.052368871	-0.11240401	0.37031679	0.22604698	0.0066040002	0.40528624	0.066459071	-0.11328211	0.35376872	0.091820905	-0.10175963	0.77655287	-0.12838516	-0.17219997	0.73216696	0.20785117	-0.044444154	0.81326456	-0.072252734	-0.070047364	0.79303203	0.1728409	-0.24196447	0.88008183	0.042127318	-0.11118474	1.2761429	-0.14659467	-0.11682869	1.2801454	0.2176498	-0.19198924	1.3213448	0.032355464	-0.18822769	0.9698752	-0.18717206	-0.19054169	0.96923653	0.29291429	-0.086078425	0.75305438	-0.23776981	-0.010273344	0.79949025	0.31852065
189	0.752	0.070453826	0.009800552	0.002772296	-0.42656388	0.08724964	0.1530771	-0.051372681	0.040377523	-0.023320515	-0.44228844	0.22446539	0.18231637	-0.053828471	0.055923006	0.063695563	-0.4024082	0.21567862	0.10197154	-0.12922752	0.014978758	0.019699502	-0.47076533	0.2677824	0.12001447	0.036343396	0.40308047	-0.052153416	-0.09888873	0.37336471	0.226279	0.0078667862	0.40547579	0.066615229	-0.099703056	0.35648358	0.091864003	-0.09658568	0.77759259	-0.12872028	-0.16521757	0.73391478	0.20711728	-0.038706934	0.81450371	-0.072756118	-0.063976712	0.79504194	0.17277527	-0.23613336	0.88194135	0.041575407	-0.10431366	1.2782127	-0.14634474	-0.11100041	1.2819909	0.21798346	-0.18546595	1.3231975	0.032451974	-0.17974789	0.97125376	-0.18714564	-0.18576081	0.97127361	0.29242805	-0.075089256	0.75547503	-0.23690471	-0.0079890799	0.79954771	0.31890603
190	0.756	0.070432943	0.0098215517	0.0027444628	-0.40849959	0.087620752	0.15423736	-0.051376852	0.040436863	-0.023308624	-0.42689245	0.22447486	0.18269864	-0.053917124	0.055999623	0.063693063	-0.3869528	0.21603343	0.10257842	-0.12918209	0.015044841	0.019629449	-0.45649693	0.26712269	0.12030875	0.037778924	0.40298578	-0.051851683	-0.085487167	0.3766121	0.22643847	0.0091351109	0.40566772	0.06685421	-0.086173504	0.35926685	0.091898466	-0.091540854	0.77864851	-0.12909768	-0.15834257	0.7358252	0.2066702	-0.033025982	0.81577465	-0.073265703	-0.057876786	0.79707364	0.17267937	-0.23018217	0.88383127	0.041174351	-0.097500377	1.2803361	-0.14608551	-0.10514659	1.2838615	0.21830338	-0.17896914	1.3250703	0.032578815	-0.17132324	0.97268855	-0.18716447	-0.1809759	0.9733904	0.29199557	-0.064060044	0.75800221	-0.23597863	-0.0057750516	0.79970222	0.31928961
